<svg viewBox="0 0 16 16" fill="none" xmlns="http://www.w3.org/2000/svg">
    <path fill-rule="evenodd" clip-rule="evenodd"
        d="M13 16H1C0.4 16 0 15.6 0 15V1C0 0.4 0.4 0 1 0H13V2H2V14H12V13H14V15C14 15.6 13.6 16 13 16Z"
        fill="currentColor" />
    <path fill-rule="evenodd" clip-rule="evenodd"
        d="M16 6C16 4.3 14.7 3 13 3C11.3 3 10 4.3 10 6C10 6.9 10.4 7.7 11 8.2V12L13 10L15 12V8.2C15.6 7.7 16 6.9 16 6Z"
        fill="currentColor" />
    <rect x="4" y="5" width="4" height="2" fill="currentColor" />
    <rect x="4" y="9" width="5" height="2" fill="currentColor" />
</svg>